<?xml version="1.0" encoding="UTF-8"?>
<svg id="Layer_1" data-name="Layer 1" xmlns="http://www.w3.org/2000/svg" viewBox="0 0 780.19 202.93">
  <defs>
    <style>
      .cls-1 {
        fill: #f05075;
      }

      .cls-2 {
        fill: #fff;
      }
    </style>
  </defs>
  <rect class="cls-1" width="780.19" height="202.93"/>
  <path class="cls-2" d="M216.98,44.15c16.4.23,35.17,3.32,50.13,10.67,5.14,2.53,13.83,8.08,15.59,13.94,2.58,8.57,9.38,13.5,10.67,22.39,1.39,9.6,2.89,19.18,4.48,28.75,1.24,7.48-3.68,17.41-7.54,23.47-9.68,15.19-30.39,33.65-49.27,34.76-4.32.25-10.14.85-17.47,1.79-17.9,2.29-29.55-7.1-46.07-12.95-5.95-2.1-13.35-13.57-16.49-18.91-1.93-3.3-5.44-5.66-6.82-8.92-7.12-16.85-1.96-33.62.43-50.84.43-3.1,2.72-3.8,3.56-6.44,1.36-4.3,2.26-8.69,4.97-12.21,7.35-9.57,21.1-17.29,32.07-21.73,6.01-2.43,12.13-.81,18.05-3.06,1.28-.49,2.52-.72,3.71-.71h0ZM229.94,96.87c-2.89-.77-5.83-1.31-8.81-1.62-3.53-.37-6.51.92-9.73,2.12-.31.12-.54.33-.69.63-4.14,8.51-8.06,17.37-.59,25.14,3.58,3.73,8.57,5.71,14.96,5.96.31,0,.58-.08.82-.26,2.94-2.13,7.75-3.99,9.69-6.9,5.65-8.49,2.6-16.06-2.88-23.21-.71-.93-1.64-1.55-2.77-1.86h0ZM341.71,136.44l6.75-3.95c.21-.13.49-.06.62.16.07.11.08.24.04.36l-.62,2.05c-.1.33.06.69.37.83l1.97.85c.27.12.59.06.8-.15,6.22-6.32,14.51-1.66,20.9,1.7.32.17.45.57.28.89-.03.06-.07.11-.12.16-.33.34-.78.33-1.33-.02-8.28-5.19-18.25-3.55-25.89,1.98-9.45,6.86-6.1,22.68,6.92,16.23.28-.14.44-.37.49-.68.19-1.22-.09-2.34-.84-3.37-.2-.27-.27-.56-.21-.89.53-2.85,2.29-4.27,5.27-4.26.29,0,.56.11.77.31,2.43,2.26,5.91,5.13,6.44,8.33,2.41,14.69-44.17,14.82-52.01,14.66-2.64-.06-4.47.46-6.43-1.79-.22-.25-.34-.57-.34-.9.19-39.26,2.77-78.56,2.53-117.78-.04-6.55,16.25-1.92,18.79-1.51.33.05.63.18.9.39,3.65,2.84,7.76,4.69,12.33,5.55,8.58,1.61,13.83,6.51,20.97,11.79,1.09.81,2.59,1.57,4.51,2.3,3.05,1.15,5.71,2.96,7.98,5.42.2.22.48.35.78.38l3.94.35c.28.03.53.13.75.31,2.87,2.45,5.19,5.56,8.1,7.62,3.71,2.64,10.85,5.81,12.97,9.81,1.22,2.29,2.86,4.19,4.91,5.7.16.12.38.08.49-.08.04-.06.07-.13.07-.21.03-5.3-.73-12.13.57-17.24,2.02-7.94.78-18.22.65-26.48-.07-4.05.56-9.02,5.08-10.31,4.22-1.2,8.8,2.07,13.68,1.53,12.36-1.35,25.45-1.69,39.28-1.04,2.14.1,2.74,1.07,2.64,3.16-.29,5.73-.81,11.43-1.56,17.12-.62,4.7,1.42,8.13.99,12.51-1.77,17.94-.94,35.81-2.65,53.78-.97,10.2-.17,20.32,2.39,30.35.85,3.35,4.51,5.64,7.08,7.74.26.22.39.5.38.83-.05,2.27-.5,4.4-1.36,6.4-2.69,6.24-14.32,6.22-19.41,4.34-12.34-4.57-29.83-14.03-39.09-23.67-7.22-7.54-14.93-16.32-23.82-21.85-5.93-3.69-13.75-5.77-20.81-7.92-4.09-1.25-7.56-.84-11.63-.27-.33.05-.52-.09-.59-.41l-.37-1.78c-.07-.35-.29-.55-.64-.6-6.97-1-20.2-.81-15.53,10.97.17.43.46.53.87.3h0ZM765.72,152.93l-1.41,6.78c-.06.33-.28.6-.58.75-2.35,1.11-5.33,2.24-8.94,3.39-2.8.89-2.35,3.19-4.01,4.75-2.04,1.91-7.18,2.55-10.46,3.06-1.53.23-4.05,1.62-7.58,4.16-5.34,3.84-20.67,5.4-25.24,5.77-8.77.71-17.61-3.86-26.42-4.61-3.92-.34-7.73-1.48-11.43-3.41-31.29-16.39-47.14-55.05-31.69-87.95,6.91-14.73,18.2-27.95,33.63-34.17,3.2-1.29,8.29-.68,12.36-2.41,3.91-1.67,6.22-3.37,11.27-3.24,1.91.05,3.8-.05,5.65-.32,7.15-1.04,14.27-.83,21.36.62,5.26,1.07,8.72,5.03,14.4,6.12,2.9.56,7.64.9,9.7,3.33,3.49,4.1,7.85,6.88,13.09,8.33.35.1.61.32.76.65l2.79,6.13c.12.26.31.48.56.64,3.98,2.45,6.57,5.5,7.77,9.15,3.29,10.01,5.38,18.07,6.29,24.2,1.9,12.94.44,31.21-5.34,43.52-.14.29-.36.53-.63.7l-5.35,3.29c-.3.18-.48.44-.55.77h0ZM675.35,52.8c-.12-.27-.44-.4-.71-.28l-8.91,3.88c-.27.12-.4.44-.28.71l.07.17c.12.27.44.4.71.28l8.91-3.88c.27-.12.4-.44.28-.71l-.07-.17ZM662.07,62.19l-3.4,2.11s-.02.03-.01.04l.02.03c.5.81,1.63,1.02,2.53.47l.21-.13c.9-.56,1.22-1.66.71-2.48h0l-.02-.03s-.03-.02-.04,0h0ZM638.58,95.14c.04-.17-.06-.33-.23-.37l-.16-.04c-.17-.04-.33.06-.37.23h0l-3.03,12.64c-.04.17.06.33.23.37h0l.16.04c.17.04.33-.06.37-.23h0l3.03-12.64h0ZM696.09,100.19c-6.33,7.1-3.95,12.61-3.5,20.91.02.38.22.56.6.55,2.41-.1,4.05.26,5.98,2.01,3.56,3.23,11.45,5.49,15.07.98,4.71-5.87,6.89-12.69,6.53-20.46-.01-.33-.14-.62-.38-.85-2.64-2.58-4.66-6.79-8.65-7.32-4.76-.62-12.12.22-15.65,4.18h0ZM533.17,124.09c-2.29-4.7-7.18-7.47-10.92-10.99-1.87-1.75-3.93-3.93-6.18-6.52-11.56-13.26-22.98-26.64-34.26-40.13-3.97-4.74-7.57-9.66-10.8-14.77-.48-.75-.47-1.71.01-2.45,3.36-5.21,12.87-.92,16.75-3.6.27-.18.56-.24.88-.19,13.69,2.22,28.21,1.3,44.67.48,2.14-.11,3.94.41,5.37,2.25,5.21,6.72,10.71,13.2,16.48,19.44,3.93,4.25,4.43,8.36,11.76,7.83.33-.02.65-.15.9-.38,7.76-6.93,14.05-14.98,18.86-24.17.44-.84,1.17-1.34,1.92-1.86.25-.18.54-.28.86-.3,2.31-.1,4.62-.27,6.91-.51,8-.83,15.71.86,23.94,0,13.27-1.37,26.16-2.04,38.68-2.01,1.26,0,2.12.53,2.57,1.58.13.31.1.61-.1.9-2.11,2.9-4.08,7.18-7.91,7.92-5.78,1.13-10.39,12.08-15.03,15.57-4.34,3.27-7.03,6.44-9.77,11.61-5.73,10.78-11.56,19.56-19.85,29.8-8.19,10.1-16.3,20.01-23.95,30.55-3.33,4.58-4.92,9.43-6.85,14.67-.66,1.8-2.46,5.23-3.96,6.47-4.28,3.55-7.83,7.9-10.64,13.05-2.8,5.12-5.78,2.16-9.69,2.32-9.46.36-18.91.31-28.36-.16-2.05-.11-4.46.04-7.23.45-5.03.73-10.07.71-15.11-.08-2.23-.35-5.21.75-7.15-.56-2.65-1.79-3.13-4.28-1.44-7.45.16-.3.41-.48.75-.53,2.58-.4,4.37-1.26,5.38-2.57,6.7-8.71,14.18-16.62,20.07-25.88,3.75-5.88,7.83-11.77,12.24-17.66.5-.67.57-1.37.2-2.12h0Z"/>
  <path class="cls-2" d="M68.56,140.7c-1.5,7.96-3.31,14.27-.4,20.51,2.81,6,8.12,8.23,8.77,15.63.26,2.94-.84,4.55-3.46,5.96-3.43,1.85-6.17,2.78-8.23,2.78-14.46,0-28.25,1.92-43.96-.97-.36-.07-.6.07-.71.42l-.4,1.21c-.08.24-.34.38-.58.3-.09-.03-.17-.09-.23-.17-.83-1.09-1.86-1.23-3.09-.42-.33.23-.66.22-.99-.02l-1.19-.88c-.24-.18-.58-.12-.75.12-.02.02-.03.05-.05.07l-.36.69c-.19.37-.5.52-.91.47-3.54-.47-5.96,1.01-8.91-1.95-.25-.24-.33-.53-.26-.87,2.93-13,1.61-27.18,2.06-40.72.45-13.77-.17-27.48.62-41.3.72-12.69.31-27.32.3-37.85-.01-6.1.65-14.71-.52-22.05-.68-4.19,1.14-6.63,1.03-10.1-.06-1.97-.6-3.59-.35-5.54.65-5.07.83-9.77.54-14.1C5.94,3.03,30.51,2.04,36.13,2.02c25.77-.07,42.83.08,51.19.44,6.71.29,14.4,1.72,23.09,4.27,1.86.55,3.69,1.46,5.48,2.73,7.49,5.28,16.38,8.46,21.74,16.14,4.97,7.11,8.84,13.65,11.62,19.62,6.37,13.67,4.85,33.97.55,48.13-1.49,4.91-4.79,6.9-8,10.62-.21.25-.34.56-.35.88-.15,3.99-1.7,6.92-4.66,8.79-5.98,3.79-9.94,5.84-14,10.95-3.87,4.87-9.12,8.12-15.77,9.77-13.31,3.3-25.93,5.24-37.87,5.82-.33.02-.53.19-.59.52h0ZM82.58,53.94c-.89-.41-1.84-.72-2.84-.95-.35-.08-.63-.27-.84-.56l-1.62-2.26c-.19-.27-.48-.46-.81-.52l-8.3-1.49c-1.28-.23-2.01.29-2.19,1.58-.87,6.05-2.77,17.76-.55,23.71,2.42,6.49.32,13.84-.38,20.48-.03.29.14.57.41.68,1.27.53,2.3,1.37,3.07,2.53.44.66,1.01.8,1.71.43,9.99-5.43,16.46-17.69,17.8-28.64.56-4.52-.71-12.86-5.46-14.99Z"/>
  <path class="cls-2" d="M467.31,196.26c6.67,1.33,11.21.8,17.47-.82.44-.11.9.16,1.01.6.08.34-.05.69-.34.89-5.08,3.42-10.01,3.06-17.29,2.77-7.52-.3-17.33-.82-22.77-1.51-17.2-2.2-28.09-12.48-37.88-25.98-1.52-2.1-4.27-4.53-8.26-7.28-.22-.16-.38-.37-.49-.61-.87-2.07-1.95-3.97-3.26-5.7-1.36-1.82-3.55-2.52-5.28-4.12-.25-.22-.27-.6-.05-.85.13-.15.34-.22.54-.19,7.99,1.02,9.38,7.61,15.16,11.99,2.21,1.67,4.27,2.82,6.26,5,2.07,2.27,4.53,4.02,7.38,5.27.3.13.53.39.61.7l.66,2.5c.09.36.36.66.71.8,3.44,1.33,6.29,2.17,9.19,4.69,7.04,6.12,24.16,9.35,36.63,11.85h0Z"/>
</svg>